<svg id="Layer_1" data-name="Layer 1" xmlns="http://www.w3.org/2000/svg" viewBox="0 0 300 300"><defs><style>.cls-1{fill:#f15955;}.cls-2{fill:#fff;}.cls-3{fill:#82c0cd;}.cls-4{fill:#2d3f50;fill-rule:evenodd;}</style></defs><title>Rocket</title><circle class="cls-1" cx="150" cy="150" r="144.96"/><path class="cls-2" d="M54.22,146.91c5.05,0,11.79-2.81,11.79-13.62V121.55c0-15.3,6.32-22,17.55-22h4.32v7H84.55c-5.34,0-9.69,2.39-9.69,15v9.91C74.86,148,65.59,150,65.59,150s9.27,2,9.27,18.53v9.92c0,12.64,4.35,15,9.69,15h3.34v7H83.57c-11.23,0-17.55-6.74-17.55-22V166.71c0-10.81-6.74-13.62-11.79-13.62Zm191.56,6.18c-5.05,0-11.79,2.81-11.79,13.62v11.74c0,15.3-6.32,22-17.55,22h-4.32v-7h3.34c5.34,0,9.69-2.39,9.69-15v-9.92c0-16.57,9.27-18.53,9.27-18.53s-9.27-2-9.27-18.54v-9.91c0-12.64-4.35-15-9.69-15h-3.34v-7h4.32c11.23,0,17.55,6.74,17.55,22v11.74c0,10.81,6.74,13.62,11.79,13.62Z"/><rect class="cls-3" x="153.84" y="124.14" width="25.06" height="21.48"/><path class="cls-4" d="M187.8,117.34s1.37,16.62-7.7,27.62c-4.4,5.27-12.75,10-20.23,13.53l-8.87,4a48,48,0,0,0,7.11-1.16c.17,5.54,2.91,12.53-3.47,17.15s-22.57,6.1-23,5.38,12.78-10.07,14.33-11.8a12.55,12.55,0,0,0-.86-6.61c0,3-2.09,3.91-5.23,1.48a36.17,36.17,0,0,1-9.49-11.29c-1.9-3.61-.65-5.56,2.4-5a12.85,12.85,0,0,0-6.34-2c-2,1.2-13.63,12.44-14.22,11.94s3.86-16.25,9.53-21.68,12-1.46,17.44-.3a49.73,49.73,0,0,0-2.42,6.78l5.54-8c4.78-6.73,11-14.09,17-17.41,12.43-6.94,28.57-2.58,28.57-2.58Zm-13.51,11.24A9.42,9.42,0,1,1,161,127.33a9.37,9.37,0,0,1,13.26,1.26Z"/><g id="amBiO5"><path class="cls-2" d="M113.1,176.28c.18.14.31.26.44.35a2,2,0,0,0,2.75-.44,5.18,5.18,0,0,0,1-2.57c.28-1.7.52-3.41.89-5.09a11.77,11.77,0,0,1,2.18-4.78A7.87,7.87,0,0,1,131,162.08s0,0,0,0a14.67,14.67,0,0,0-1.92-.15,4.87,4.87,0,0,0-4.27,2.4,2.08,2.08,0,0,0-.3,1.25,2.12,2.12,0,0,1,2.25.16,2.07,2.07,0,0,1,1,1.34.76.76,0,0,0-.17-.08,3.48,3.48,0,0,0-3.23,1.15,5.54,5.54,0,0,0-1.46,4.24,1,1,0,0,0,0,.19c.28-.31.53-.6.81-.89a3.42,3.42,0,0,1,2.41-1.08c.87,0,1.74,0,2.62,0a5.11,5.11,0,0,0,2.61-.44A4.78,4.78,0,0,0,134,165.9c0-.13,0-.25,0-.47a5.59,5.59,0,0,1,.9,2.36,6.84,6.84,0,0,1-1.82,5.86,5.87,5.87,0,0,1-3.67,1.84c-.65.09-1.31.14-2,.25a2.26,2.26,0,0,0-2,1.52,1.8,1.8,0,0,0,.17,1.61,1.94,1.94,0,0,1,.1.24,4.13,4.13,0,0,1-3.14-2.6l-.18.4a5.68,5.68,0,0,1-5.39,3.29,4.44,4.44,0,0,1-3.95-3.76Z"/></g></svg>