<svg id="Layer_1" data-name="Layer 1" xmlns="http://www.w3.org/2000/svg" viewBox="0 0 300 300"><defs><style>.cls-1{fill:#82c0cd;}.cls-2{fill:#fff;}.cls-3{fill:#f15955;}.cls-4{fill:#2d3f50;}</style></defs><title>Rocket</title><circle class="cls-1" cx="150" cy="150" r="144.96"/><path class="cls-2" d="M54.22,146.91c5.05,0,11.79-2.81,11.79-13.62V121.55c0-15.3,6.32-22,17.55-22h4.32v7H84.55c-5.34,0-9.69,2.39-9.69,15v9.91C74.86,148,65.59,150,65.59,150s9.27,2,9.27,18.53v9.92c0,12.64,4.35,15,9.69,15h3.34v7H83.57c-11.23,0-17.55-6.74-17.55-22V166.71c0-10.81-6.74-13.62-11.79-13.62Zm191.56,6.18c-5.05,0-11.79,2.81-11.79,13.62v11.74c0,15.3-6.32,22-17.55,22h-4.32v-7h3.34c5.34,0,9.69-2.39,9.69-15v-9.92c0-16.57,9.27-18.53,9.27-18.53s-9.27-2-9.27-18.54v-9.91c0-12.64-4.35-15-9.69-15h-3.34v-7h4.32c11.23,0,17.55,6.74,17.55,22v11.74c0,10.81,6.74,13.62,11.79,13.62Z"/><path class="cls-3" d="M185.82,127.53a8.3,8.3,0,1,0,8.3,8.3,8.3,8.3,0,0,0-8.3-8.3"/><path class="cls-3" d="M162.17,151.19a8.3,8.3,0,1,0,8.3-8.3,8.3,8.3,0,0,0-8.3,8.3"/><path class="cls-3" d="M185.82,174.84a8.3,8.3,0,1,0-8.29-8.3,8.3,8.3,0,0,0,8.29,8.3"/><path class="cls-3" d="M209.47,151.19a8.3,8.3,0,1,0-8.3,8.3,8.3,8.3,0,0,0,8.3-8.3"/><polygon class="cls-4" points="135.42 144.17 120.5 144.17 120.5 129.25 106.46 129.25 106.46 144.17 91.54 144.17 91.54 158.21 106.46 158.21 106.46 173.12 120.5 173.12 120.5 158.21 135.42 158.21 135.42 144.17"/></svg>