<svg id="Layer_1" data-name="Layer 1" xmlns="http://www.w3.org/2000/svg" viewBox="0 0 300 300"><defs><style>.cls-1{fill:#2d3f50;}.cls-2{fill:#fff;}.cls-3{fill:#82c0cd;}</style></defs><title>Rocket</title><circle class="cls-1" cx="150" cy="150" r="144.96"/><path class="cls-2" d="M54.22,146.91c5.05,0,11.79-2.81,11.79-13.62V121.55c0-15.3,6.32-22,17.55-22h4.32v7H84.55c-5.34,0-9.69,2.39-9.69,15v9.91C74.86,148,65.59,150,65.59,150s9.27,2,9.27,18.53v9.92c0,12.64,4.35,15,9.69,15h3.34v7H83.57c-11.23,0-17.55-6.74-17.55-22V166.71c0-10.81-6.74-13.62-11.79-13.62Zm191.56,6.18c-5.05,0-11.79,2.81-11.79,13.62v11.74c0,15.3-6.32,22-17.55,22h-4.32v-7h3.34c5.34,0,9.69-2.39,9.69-15v-9.92c0-16.57,9.27-18.53,9.27-18.53s-9.27-2-9.27-18.54v-9.91c0-12.64-4.35-15-9.69-15h-3.34v-7h4.32c11.23,0,17.55,6.74,17.55,22v11.74c0,10.81,6.74,13.62,11.79,13.62Z"/><path class="cls-3" d="M185.34,180.69a2.23,2.23,0,0,0-2.63-1.35c-14.71,3.47-34.19-3.3-43-22.94-6.05-13.53-5.52-33.63,10-45.78a2.34,2.34,0,0,0,.74-2.8,2.23,2.23,0,0,0-2.76-1.18,31.89,31.89,0,0,0-4.07,1.71c-.68.34-1.36.66-2.06,1-9,4-20.59,14.16-23.93,29.49-4,18.53,3.35,36.18,19.26,46.05a43.06,43.06,0,0,0,22.7,6.56,40.89,40.89,0,0,0,21.89-5.91l2.77-1.82A2.64,2.64,0,0,0,185.34,180.69Z"/></svg>